<svg version="1.0" xmlns="http://www.w3.org/2000/svg"
 width="300.000000pt" height="298.000000pt" viewBox="0 0 300.000000 298.000000"
 preserveAspectRatio="xMidYMid meet">
<metadata>
Created by potrace 1.10, written by Peter Selinger 2001-2011
</metadata>
<g transform="translate(0.000000,298.000000) scale(0.100000,-0.100000)"
fill="#0077b6" stroke="none">
<path d="M600 2290 c0 -6 45 -10 115 -10 70 0 115 4 115 10 0 6 -45 10 -115
10 -70 0 -115 -4 -115 -10z"/>
<path d="M870 2260 c0 -40 0 -40 40 -40 40 0 40 0 40 40 0 40 0 40 -40 40 -40
0 -40 0 -40 -40z"/>
<path d="M1491 2253 c14 -61 12 -63 -33 -38 -61 33 -160 56 -229 53 l-59 -3
30 -45 c33 -50 36 -60 18 -60 -7 0 -42 -14 -77 -30 -62 -30 -183 -137 -209
-187 -12 -21 -11 -21 19 -6 17 9 61 18 97 21 l66 5 -50 -64 c-71 -90 -70 -88
-25 -78 21 5 51 13 65 19 62 23 77 -1 25 -39 -29 -21 -31 -27 -26 -68 5 -49
44 -99 84 -109 17 -5 26 -18 33 -48 25 -94 43 -152 55 -176 13 -25 12 -27 -28
-47 -23 -11 -61 -26 -85 -32 -49 -14 -82 -42 -82 -71 0 -11 -16 -41 -36 -67
-74 -98 -144 -263 -144 -343 0 -84 52 -124 208 -162 79 -20 115 -22 377 -22
262 0 298 2 377 22 156 38 208 78 208 162 0 80 -70 245 -144 343 -20 26 -36
54 -36 63 0 31 -21 53 -67 69 -27 9 -69 26 -95 37 -46 21 -47 22 -33 47 12 25
30 82 55 177 7 30 16 43 33 48 38 9 78 60 84 107 6 39 3 45 -27 70 l-32 27 18
90 18 90 -32 65 c-21 42 -51 82 -83 111 -57 51 -69 56 -69 25 0 -21 0 -21 -27
-3 -54 36 -137 84 -144 84 -4 0 -3 -17 2 -37z m-95 -54 c27 -11 59 -26 70 -34
17 -13 16 -14 -13 -6 -19 6 -33 6 -35 0 -2 -5 -30 10 -63 32 -60 41 -54 43 41
8z m212 -27 c46 -37 51 -55 8 -27 l-26 18 2 -33 c2 -19 -2 -35 -9 -37 -8 -3
-13 5 -13 20 0 13 -7 43 -15 66 -16 47 -14 47 53 -7z m128 -44 c10 -12 13 -18
5 -13 -8 4 -17 2 -22 -6 -6 -10 -9 -6 -9 14 0 33 2 33 26 5z m-536 -42 c0 -12
-49 -33 -61 -26 -10 7 -8 11 11 19 26 10 50 14 50 7z m190 -45 c0 -5 -7 -14
-15 -21 -12 -10 -13 -15 -4 -21 8 -4 4 -9 -11 -14 -14 -5 -25 -2 -31 6 -6 10
-13 11 -36 0 l-28 -13 24 26 c14 15 39 30 55 35 42 12 46 12 46 2z m320 -110
c19 -15 25 -27 24 -55 -1 -20 -4 -39 -7 -42 -6 -6 -476 -8 -482 -2 -2 1 -6 15
-10 29 -6 25 -3 28 56 48 68 23 139 27 170 10 15 -8 26 -7 43 5 60 38 158 42
206 7z m-200 -216 c27 -55 67 -79 122 -72 26 3 38 1 38 -7 0 -33 -64 -209 -84
-233 -19 -22 -33 -27 -82 -31 -109 -7 -128 11 -179 173 l-33 104 42 -5 c59 -8
98 14 126 71 12 25 23 45 25 45 2 0 13 -20 25 -45z m305 -417 c39 -15 40 -16
43 -67 3 -59 -24 -199 -66 -341 l-28 -95 -269 -2 c-149 -2 -275 0 -281 5 -11
8 -78 235 -94 321 -6 29 -10 78 -10 108 0 49 2 54 28 64 56 23 134 27 382 25
196 -2 264 -6 295 -18z m-40 -578 l0 -35 -290 0 -290 0 -1 30 c-1 17 4 33 10
37 6 5 137 7 291 5 l280 -2 0 -35z"/>
<path d="M1400 1125 c-11 -13 -9 -20 13 -43 l27 -28 -27 -27 c-26 -26 -26 -27
-8 -47 l18 -20 27 25 c14 14 30 25 35 25 5 0 21 -11 35 -25 l27 -25 18 20 c18
20 18 21 -8 47 l-27 27 27 28 c22 23 24 30 13 43 -18 21 -33 19 -60 -10 l-24
-25 -26 25 c-30 29 -43 31 -60 10z"/>
<path d="M720 2230 c0 -5 25 -10 56 -10 34 0 53 4 49 10 -3 6 -28 10 -56 10
-27 0 -49 -4 -49 -10z"/>
<path d="M2020 2130 l0 -50 50 0 50 0 0 50 0 50 -50 0 -50 0 0 -50z"/>
<path d="M660 2160 c0 -6 33 -10 79 -10 44 0 83 5 86 10 4 6 -25 10 -79 10
-51 0 -86 -4 -86 -10z"/>
<path d="M2020 2030 c0 -6 45 -10 115 -10 70 0 115 4 115 10 0 6 -45 10 -115
10 -70 0 -115 -4 -115 -10z"/>
<path d="M2020 1970 c0 -5 23 -10 50 -10 28 0 50 5 50 10 0 6 -22 10 -50 10
-27 0 -50 -4 -50 -10z"/>
<path d="M2020 1900 c0 -6 33 -10 79 -10 44 0 83 5 86 10 4 6 -25 10 -79 10
-51 0 -86 -4 -86 -10z"/>
<path d="M850 1650 c0 -5 23 -10 50 -10 28 0 50 5 50 10 0 6 -22 10 -50 10
-27 0 -50 -4 -50 -10z"/>
<path d="M785 1590 c-4 -6 25 -10 79 -10 51 0 86 4 86 10 0 6 -33 10 -79 10
-44 0 -83 -4 -86 -10z"/>
<path d="M2020 1550 c0 -27 3 -30 30 -30 27 0 30 3 30 30 0 27 -3 30 -30 30
-27 0 -30 -3 -30 -30z"/>
<path d="M880 1500 c0 -39 1 -40 35 -40 34 0 35 1 35 40 0 39 -1 40 -35 40
-34 0 -35 -1 -35 -40z"/>
<path d="M2020 1470 c0 -5 23 -10 50 -10 28 0 50 5 50 10 0 6 -22 10 -50 10
-27 0 -50 -4 -50 -10z"/>
<path d="M2020 1410 c0 -6 35 -10 86 -10 54 0 83 4 79 10 -3 6 -42 10 -86 10
-46 0 -79 -4 -79 -10z"/>
</g>

</svg>
